<?xml version="1.0" encoding="UTF-8"?>
<svg id="Layer_2" data-name="Layer 2" xmlns="http://www.w3.org/2000/svg" viewBox="0 0 96.61 49.39">
  <defs>
    <style>
      .cls-1 {
        fill: #49c0e9;
      }

      .cls-1, .cls-2, .cls-3, .cls-4, .cls-5 {
        stroke-width: 0px;
      }

      .cls-2 {
        fill: #db5561;
      }

      .cls-3 {
        fill: #3b9e78;
      }

      .cls-4 {
        fill: #4b2770;
      }

      .cls-5 {
        fill: #fff;
      }
    </style>
  </defs>
  <g id="Capa_1" data-name="Capa 1">
    <path class="cls-5" d="M94.82,29.78l-2.67-2.04h0c-.8-.61-1.81-.94-2.85-.91-1.2.03-2.4-.02-3.56-.15-.66-.07-1.41-.15-2.13,0,.06-.26.09-.53.09-.83-.01-1.65-.02-1.73-.03-1.86,0-.11-.01-.26-.04-1.64-.01-.97-.53-2.03-1.29-2.66-1.75-1.43-3.51-2.81-5.23-4.08-.88-.65-2.22-.81-3.2-.38-.68.29-1.35.6-2.03.9,0-.14,0-.28-.01-.44.01-.24.02-.47.02-.67.02-1.5-.75-2.6-2.15-3.1-.74-.27-1.48-.54-2.21-.82-1.32-.49-2.68-1-4.05-1.46-.85-.29-1.9-.28-2.88.03-.74.23-1.44.5-2.12.76-.55.21-1.1.42-1.66.61-.05.02-.1.04-.15.06V3.01c0-.62,0-1.78-.97-2.53-.96-.73-2.07-.44-2.54-.31l-5.42,1.46c-3.59.97-7.18,1.93-10.77,2.88-1.54.4-2.38,1.49-2.37,3.07,0,1.55.01,2.1.01,2.36l-.02,2.73c-.06-.02-.12-.04-.18-.05-.68-.17-1.38-.43-2.11-.7l-.44-.16c-1.35-.49-2.65-.18-3.66.88-1.12,1.17-2.25,2.34-3.39,3.5-1.41,1.45-2.81,2.89-4.21,4.36-.63.67-1.03,1.67-1.05,2.62,0,.65-.02,1.14.01,1.53h-.01c0,.11,0,.4,0,1.23,0,.31.04.59.09.85-.1-.02-.21-.05-.32-.06-1.57-.07-3.13-.05-4.58-.01-.9.02-1.56.52-1.87.76l-1.16.88c-3.39,2.58-6.9,5.25-10.32,7.93-.95.74-1.32,1.97-1.36,2.79-.01.3-.02.6-.03.93v6.41c0,1.5,1.11,2.75,2.57,2.95.14.03.28.05.43.05h3.93c3.92,0,7.84,0,11.76.02h.07c.36,0,1.16-.03,1.87-.53.37.28.92.52,1.77.52h.58c.76-.03,1.47-.04,2.17,0,.08,0,.19.01.33.01.45,0,1.16-.1,1.8-.56.49.37,1.09.56,1.82.56.07,0,.14,0,.21,0,.87-.04,1.75-.03,2.68-.02.41,0,.82,0,1.23,0,1.13,0,1.93-.16,2.51-.51.67.48,1.46.51,2.29.51h.15l9.27-.02c.91,0,1.6-.15,2.1-.47.52.33,1.23.49,2.17.49,1,0,2,0,3,0,2.02,0,4.04,0,6.05.02.03,0,.06,0,.1,0,.38,0,1.17-.04,1.87-.54.68.5,1.45.54,1.82.54.04,0,.08,0,.11,0,1.43-.02,2.87-.02,4.3-.01h1.74c.86,0,1.58-.11,2.13-.45.59.4,1.26.46,1.87.46.11,0,.22,0,.33,0,.21,0,.45,0,.73,0,.71,0,1.5.02,2.19-.46.36.25.88.47,1.59.47.12,0,.24,0,.38-.02.06,0,.12,0,.18,0h.26c.76,0,1.53,0,2.21-.44.59.36,1.35.45,2.14.45h8.83c1.71,0,3.09-1.33,3.09-2.97v-12.99c0-1.41-.67-2.77-1.8-3.63Z"/>
    <g>
      <path class="cls-3" d="M54.66,15.44c0,6.76.04,7.96.01,14.71,0,.8.26,1.28.92,1.71,1.83,1.18,3.6,2.45,5.42,3.65.58.38.86.81.86,1.56-.04,3.07-.03,6.15,0,9.22.01.84-.28,1.11-1.11,1.1-3.02-.04-6.05,0-9.08-.01-1.26,0-1.31-.05-1.31-1.35,0-10.68-.03-15.81-.03-26.49,0-1.43-.01-1.41-1.37-1.86-3.85-1.26-7.69-2.53-11.53-3.8-.58-.19-.87-.51-.87-1.19.03-4.38.02-.74,0-5.12,0-.65.22-.95.88-1.13,5.4-1.42,10.8-2.89,16.2-4.34.88-.23,1-.11,1,.91,0,6.82,0,5.61,0,12.43h0Z"/>
      <path class="cls-2" d="M36.62,28.62c0-5.84-.03-6.13-.03-11.98,0-1.16.02-1.19,1.09-.84,3.42,1.12,6.83,2.23,10.24,3.4.29.1.47.52.68.81.06.08.01.24.01.36,0,10.44.02,15.32,0,25.76,0,1.22-.02,1.22-1.22,1.22-3.09,0-6.17.01-9.26.02q-1.52,0-1.52-1.48c0-5.75,0-11.5,0-17.26Z"/>
      <path class="cls-4" d="M77,37.14c0,3.01,0,6.02,0,9.03,0,1.2,0,1.21-1.23,1.19-2.14-.03-2.2.37-1.95-2.07.25-2.5-.58-4.03-2.77-5.23-2.35-1.29-4.51-2.94-6.71-4.49-.35-.24-.65-.81-.66-1.23-.05-5.66-.07-5.76-.1-11.42,0-.62.17-1,.77-1.27,3.46-1.52,6.89-3.09,10.35-4.59.33-.14.92-.06,1.22.16,1.75,1.29,3.47,2.64,5.15,4.02.3.25.55.75.56,1.14.05,3.01.04.47.06,3.48,0,.7-.21,1-.94.96-.94-.05-1.88.02-2.81-.02-.7-.03-.95.2-.95.94.03,3.13.01,6.27.01,9.4h0Z"/>
      <path class="cls-4" d="M34.89,28.26c0,5.81,0,11.63,0,17.44q0,1.66-1.7,1.67c-1.33,0-2.67-.04-3.99.02-.82.04-1.02-.28-1.02-1.06.02-6.09.01-12.18.01-18.26q0-1.25-1.24-1.25c-1.48,0-2.97-.02-4.45.01-.69.02-.97-.19-.96-.93.03-2.77-.04.01,0-2.76,0-.43.21-.97.5-1.28,2.51-2.64,5.07-5.22,7.59-7.85.47-.49.92-.61,1.53-.38.91.33,1.81.69,2.75.92.78.19.97.62.96,1.37-.02,5.97.01,6.38.01,12.34Z"/>
      <path class="cls-1" d="M61.58,33.72c-.92-.61-1.79-1.34-2.78-1.81-1.99-.94-2.48-2.4-2.45-4.57.14-8.82.04-4.08,0-12.9,0-.85.29-1.26,1.07-1.51,1.26-.41,2.48-.96,3.75-1.36.51-.16,1.16-.21,1.65-.04,2.09.7,4.14,1.51,6.22,2.26.59.21.84.53.83,1.2-.04,3.13-.04-1.75,0,1.38,0,.7-.27,1.04-.87,1.3-2.11.91-4.2,1.86-6.31,2.76-.64.27-.89.65-.88,1.37.03,5.42.05,5.28.05,10.7,0,.35,0,.7,0,1.06-.09.05-.19.11-.28.16Z"/>
      <path class="cls-2" d="M26.39,37.96c0,2.77-.03,5.53.02,8.3.02.9-.3,1.17-1.15,1.12-.96-.06-1.93-.02-2.9,0-.57,0-.81-.23-.81-.82.01-5.74.01-11.49,0-17.23,0-.6.3-.72.79-.71,1.03,0,2.06.04,3.08-.01.74-.04,1,.2.99.98-.04,2.8-.02,5.59-.02,8.39Z"/>
      <path class="cls-1" d="M63.77,37.37c2.02,1.36,3.76,2.75,5.7,3.77,2.11,1.11,2.9,2.61,2.57,4.94-.18,1.27-.03,1.29-1.35,1.29-2.02,0-4.05-.02-6.07,0-.67,0-1.01-.18-1.01-.92.02-2.7,0-5.41,0-8.11,0-.26.07-.51.15-.98Z"/>
      <path class="cls-2" d="M78.79,37.91c0-2.8.02-5.6-.01-8.4,0-.67.2-.92.87-.91,2.39.04,2.02-.21,2.03,1.94.02,5.17,0,10.34,0,15.52,0,1.3-.01,1.31-1.34,1.3-.21,0-.43-.02-.63,0-.73.07-.94-.27-.93-.97.03-2.83.01-5.66.01-8.49Z"/>
      <path class="cls-1" d="M19.77,36.97c0-2.5.02-4.99-.02-7.48,0-.29-.33-.81-.52-.82-1.48-.07-2.96-.05-4.44-.01-.24,0-.5.2-.71.36-3.83,2.92-7.66,5.83-11.46,8.79-.34.26-.57.85-.59,1.29-.01.29-.02.57-.02.86v6.41c0,.54.44.98.98.98,0,0,0,0,0,0v.02c5.23,0,10.47-.02,15.7.02.85,0,1.1-.28,1.09-1.1-.03-3.1-.01-6.21-.01-9.31Z"/>
      <path class="cls-3" d="M90.93,29.33c-.46-.35-1.02-.52-1.59-.5-1.28.03-2.55-.02-3.82-.16-1.64-.18-2.15-.09-2.15.97.03,5.51.01,11.01.02,16.52,0,1.16.05,1.2,1.31,1.2,2.94,0,5.88,0,8.83,0,.6,0,1.09-.43,1.09-.97v-12.99c0-.8-.37-1.55-1.01-2.04l-2.67-2.04Z"/>
    </g>
  </g>
</svg>