<?xml version="1.0" encoding="UTF-8"?><svg id="Layer_1" xmlns="http://www.w3.org/2000/svg" viewBox="0 0 1070.28 927.95"><path d="M608.62,155.3c0,78.07.47,91.96.13,170.03-.04,9.21,2.97,14.79,10.58,19.72,21.12,13.68,41.66,28.27,62.65,42.15,6.72,4.44,9.99,9.42,9.88,18-.44,35.51-.35,71.03.1,106.55.12,9.7-3.24,12.86-12.83,12.74-34.96-.43-69.92-.1-104.89-.14-14.62-.01-15.15-.61-15.16-15.65-.01-123.43-.32-182.69-.33-306.12,0-16.57-.13-16.31-15.88-21.45-44.46-14.51-88.82-29.29-133.25-43.89-6.73-2.21-10.09-5.86-10.04-13.71.31-50.64.25-8.57.06-59.21-.03-7.57,2.59-11.02,10.18-13.01,62.46-16.45,124.78-33.41,187.17-50.11,10.14-2.71,11.56-1.33,11.56,10.51.03,78.77.02,64.84.02,143.61h.04Z" fill="#fff"/><path d="M400.08,307.71c0-67.53-.34-70.88-.31-138.41,0-13.43.27-13.76,12.55-9.76,39.49,12.89,78.98,25.82,118.29,39.25,3.31,1.13,5.48,5.97,7.85,9.33.67.95.17,2.74.17,4.15-.07,120.64.21,177.09.09,297.73-.01,14.13-.22,14.08-14.05,14.1-35.67.04-71.33.13-107,.19q-17.58.03-17.59-17.15c0-66.47,0-132.95,0-199.42Z" fill="#fff"/><path d="M866.77,406.1c0,34.8.03,69.61-.02,104.41-.02,13.83-.1,13.98-14.23,13.77-24.72-.36-25.4,4.32-22.59-23.88,2.89-28.93-6.74-46.57-32.05-60.48-27.14-14.91-52.09-33.95-77.49-51.9-4-2.82-7.56-9.39-7.61-14.26-.62-65.38-.83-66.59-1.13-131.97-.03-7.16,1.92-11.57,8.89-14.63,39.94-17.55,79.6-35.71,119.62-53.06,3.82-1.65,10.65-.69,14.05,1.83,20.25,14.96,40.1,30.5,59.56,46.48,3.49,2.86,6.38,8.68,6.45,13.18.53,34.79.45,5.42.73,40.23.06,8.07-2.47,11.5-10.88,11.07-10.81-.55-21.68.25-32.49-.23-8.08-.36-11.03,2.33-10.94,10.82.4,36.2.17,72.42.17,108.62h-.05Z" fill="#fff"/><path d="M380.06,303.47c0,67.19,0,134.37,0,201.56q0,19.22-19.6,19.26c-15.39.02-30.8-.47-46.16.23-9.5.43-11.84-3.27-11.8-12.25.28-70.35.14-140.71.12-211.06q0-14.44-14.34-14.45c-17.14,0-34.28-.28-51.41.14-7.96.19-11.21-2.19-11.11-10.76.39-32.01-.42.15.09-31.85.08-5.02,2.37-11.2,5.78-14.79,28.98-30.48,58.56-60.37,87.66-90.73,5.38-5.62,10.64-7.03,17.72-4.44,10.49,3.83,20.95,7.96,31.75,10.65,9.01,2.25,11.16,7.13,11.13,15.82-.29,68.94.16,73.71.15,142.66Z" fill="#fff"/><path d="M688.57,366.57c-10.67-7.06-20.7-15.5-32.15-20.89-23.05-10.85-28.69-27.68-28.3-52.8,1.59-101.98.45-47.12.09-149.12-.03-9.84,3.37-14.55,12.4-17.49,14.6-4.74,28.67-11.14,43.32-15.67,5.93-1.83,13.38-2.4,19.12-.47,24.15,8.11,47.87,17.49,71.83,26.15,6.77,2.45,9.73,6.11,9.64,13.88-.42,36.22-.43-20.24,0,15.98.1,8.11-3.15,12.03-10.04,14.99-24.39,10.47-48.55,21.47-72.97,31.86-7.41,3.15-10.25,7.48-10.2,15.86.37,62.61.53,61.04.53,123.65,0,4.07,0,8.14,0,12.21-1.09.62-2.18,1.24-3.28,1.86Z" fill="#fff"/><path d="M281.87,415.64c0,31.96-.38,63.92.22,95.87.2,10.45-3.5,13.55-13.32,12.95-11.13-.67-22.34-.25-33.51-.09-6.55.09-9.39-2.62-9.38-9.44.13-66.37.14-132.74-.01-199.11-.02-6.9,3.48-8.27,9.14-8.23,11.87.09,23.76.45,35.61-.13,8.55-.42,11.57,2.37,11.45,11.27-.46,32.3-.18,64.61-.18,96.92Z" fill="#fff"/><path d="M713.83,408.78c23.39,15.71,43.49,31.8,65.84,43.51,24.43,12.8,33.52,30.19,29.73,57.14-2.06,14.66-.4,14.9-15.6,14.9-23.39,0-46.78-.25-70.16.08-7.78.11-11.68-2.07-11.63-10.59.22-31.24.02-62.49.1-93.74,0-2.95.86-5.91,1.71-11.3Z" fill="#fff"/><path d="M887.4,415.04c0-32.35.2-64.7-.15-97.04-.08-7.72,2.27-10.67,10.11-10.52,27.66.5,23.36-2.47,23.43,22.43.18,59.77.08,119.54.06,179.31,0,15-.15,15.09-15.46,15.06-2.45,0-4.92-.22-7.34.02-8.38.85-10.86-3.14-10.79-11.18.3-32.7.12-65.4.13-98.09Z" fill="#fff"/><path d="M205.41,404.14c0-28.83.21-57.67-.28-86.5-.06-3.35-3.81-9.41-6.05-9.51-17.09-.76-34.24-.55-51.36-.13-2.78.07-5.78,2.28-8.2,4.12-44.25,33.72-88.56,67.38-132.42,101.61-3.88,3.03-6.62,9.8-6.82,14.96-.13,3.31-.21,6.62-.28,9.93v74.1c0,6.28,5.09,11.36,11.36,11.36.04,0,.08,0,.11,0v.18c60.48,0,120.97-.2,181.45.21,9.84.07,12.72-3.27,12.62-12.75-.37-35.86-.14-71.73-.13-107.6Z" fill="#fff"/><path d="M1027.72,315.9c-5.27-4.02-11.76-5.98-18.38-5.82-14.75.34-29.52-.26-44.2-1.84-18.9-2.03-24.89-1.05-24.82,11.18.39,63.65.16,127.29.2,190.94,0,13.44.56,13.89,15.13,13.9,34,.01,68.01.02,102.01.03,6.97,0,12.62-5.01,12.62-11.2v-150.09c0-9.23-4.31-17.93-11.65-23.53l-30.91-23.57Z" fill="#fff"/><path d="M13.17,728.47v-153.7h32.94v120.77h60.38v32.93H13.17Z" fill="#fff"/><path d="M191.9,574.77h37.11l55.77,153.7h-34.91l-8.79-24.15h-61.26l-8.79,24.15h-34.91l55.77-153.7ZM191.9,671.38h37.11l-18.66-50.93-18.45,50.93Z" fill="#fff"/><path d="M512.57,731.33c-10.39,0-20.16-2.07-29.31-6.21-9.15-4.13-17.2-9.86-24.15-17.18-6.95-7.32-12.4-15.79-16.36-25.42-3.95-9.63-5.93-19.93-5.93-30.91s1.98-21.27,5.93-30.9c3.96-9.63,9.41-18.09,16.36-25.42,6.95-7.31,15-13.05,24.15-17.18,9.15-4.14,18.92-6.21,29.31-6.21s20.27,2.07,29.43,6.21c9.14,4.13,17.2,9.86,24.15,17.18,6.95,7.32,12.37,15.79,16.3,25.42,3.9,9.63,5.87,19.93,5.87,30.9s-1.96,21.28-5.87,30.91c-3.93,9.63-9.34,18.09-16.3,25.42-6.95,7.31-15.01,13.05-24.15,17.18-9.16,4.14-18.96,6.21-29.43,6.21ZM512.57,698.4c5.85,0,11.35-1.23,16.52-3.68,5.17-2.46,9.73-5.82,13.68-10.1,3.95-4.29,7.04-9.24,9.28-14.87,2.23-5.64,3.34-11.68,3.34-18.12s-1.11-12.47-3.34-18.11c-2.23-5.63-5.33-10.59-9.28-14.87-3.95-4.28-8.51-7.64-13.68-10.1-5.17-2.45-10.68-3.68-16.52-3.68s-11.36,1.23-16.52,3.68c-5.16,2.46-9.72,5.82-13.67,10.1-3.96,4.29-7.05,9.24-9.28,14.87-2.23,5.64-3.35,11.68-3.35,18.11s1.12,12.48,3.35,18.12c2.23,5.63,5.32,10.59,9.28,14.87,3.95,4.28,8.51,7.64,13.67,10.1,5.16,2.45,10.66,3.68,16.52,3.68Z" fill="#fff"/><path d="M733.25,574.77v32.93h-43.91v120.77h-32.94v-120.77h-43.91v-32.93h120.77Z" fill="#fff"/><path d="M770.57,728.47v-153.7h62.58c8.42,0,16.04,2.12,22.84,6.37,6.81,4.24,12.2,9.93,16.19,17.08,3.98,7.13,5.98,14.99,5.98,23.54,0,6.59-1.09,12.72-3.3,18.4-2.2,5.67-5.33,10.69-9.39,15.04-4.06,4.34-8.84,7.84-14.32,10.48l36.44,62.79h-37.98l-34.7-59.72h-11.41v59.72h-32.94ZM803.52,635.82h25.69c2.92,0,5.6-.76,8.01-2.26,2.42-1.5,4.36-3.49,5.82-5.98,1.46-2.48,2.19-5.24,2.19-8.24s-.73-5.74-2.19-8.23c-1.47-2.49-3.41-4.48-5.82-5.98-2.42-1.5-5.09-2.26-8.01-2.26h-25.69v32.94Z" fill="#fff"/><path d="M968.64,574.77h37.11s55.77,153.7,55.77,153.7h-34.92s-8.78-24.15-8.78-24.15h-61.26s-8.78,24.15-8.78,24.15h-34.92s55.77-153.7,55.77-153.7ZM968.64,671.38h37.11s-18.67-50.93-18.67-50.93l-18.44,50.93Z" fill="#fff"/><path d="M84.31,916.23c-10.39,0-20.16-2.07-29.31-6.21-9.15-4.13-17.18-9.86-24.09-17.18-6.92-7.32-12.34-15.79-16.25-25.42s-5.87-19.93-5.87-30.91,1.96-21.39,5.87-31.01c3.92-9.62,9.33-18.08,16.25-25.36,6.92-7.28,14.95-12.99,24.09-17.12,9.15-4.14,18.92-6.21,29.31-6.21,12.44,0,23.9,2.87,34.36,8.62,10.47,5.74,19.14,13.41,26.02,23l-29.42,15.8c-3.81-4.39-8.39-7.9-13.72-10.54-5.34-2.63-11.09-3.95-17.24-3.95s-11.36,1.21-16.52,3.62c-5.16,2.42-9.7,5.77-13.61,10.04-3.92,4.29-6.97,9.24-9.17,14.89-2.2,5.63-3.3,11.7-3.3,18.22s1.1,12.48,3.3,18.12c2.2,5.63,5.25,10.59,9.17,14.87,3.91,4.28,8.45,7.64,13.61,10.1,5.16,2.45,10.66,3.68,16.52,3.68,6.15,0,11.9-1.34,17.24-4.02,5.34-2.66,9.91-6.23,13.72-10.7l29.42,16.03c-6.88,9.51-15.55,17.17-26.02,22.94-10.47,5.79-21.92,8.68-34.36,8.68Z" fill="#fff"/><path d="M220.03,913.38v-153.7h32.94v153.7h-32.94Z" fill="#fff"/><path d="M397.24,759.68c12.3,0,23.15,3,32.55,9.01,9.41,5.99,16.76,14.06,22.07,24.21,5.3,10.13,7.96,21.39,7.96,33.76v89.59h-32.94v-89.59c0-6.22-1.17-11.91-3.51-17.08-2.34-5.16-5.73-9.28-10.16-12.35-4.42-3.07-9.75-4.62-15.97-4.62s-11.64,1.52-16.03,4.56-7.73,7.14-9.99,12.3c-2.27,5.16-3.4,10.88-3.4,17.18v89.59h-32.94v-89.59c0-9.3,1.5-17.99,4.5-26.07,3-8.09,7.28-15.21,12.84-21.35,5.56-6.15,12.15-10.95,19.76-14.39,7.62-3.43,16.03-5.16,25.25-5.16Z" fill="#fff"/><path d="M535.15,913.38v-153.7h50.94c10.61,0,20.55,2,29.81,5.98,9.27,4,17.43,9.51,24.49,16.58,7.05,7.06,12.58,15.22,16.58,24.48,3.98,9.27,5.98,19.2,5.98,29.81s-2,20.55-5.98,29.82c-4,9.25-9.53,17.41-16.58,24.48-7.06,7.06-15.22,12.58-24.49,16.58-9.25,3.98-19.2,5.98-29.81,5.98h-50.94ZM568.1,880.45h18c5.92,0,11.53-1.14,16.8-3.41,5.26-2.27,9.94-5.42,14.05-9.45,4.1-4.02,7.3-8.69,9.6-13.99,2.3-5.3,3.45-10.99,3.45-17.08s-1.15-11.74-3.45-17.01-5.48-9.94-9.55-14.01-8.74-7.22-14.01-9.49c-5.27-2.27-10.9-3.41-16.91-3.41h-18v87.84Z" fill="#fff"/><path d="M810.29,913.38h-37.11s-55.77-153.7-55.77-153.7h34.92s8.78,24.15,8.78,24.15h61.26s8.78-24.15,8.78-24.15h34.92s-55.77,153.7-55.77,153.7ZM810.29,816.77h-37.11s18.67,50.93,18.67,50.93l18.44-50.93Z" fill="#fff"/><path d="M935.9,913.38v-153.7h50.94c10.61,0,20.55,2,29.81,5.98,9.27,4,17.43,9.51,24.49,16.58,7.05,7.06,12.58,15.22,16.58,24.48,3.98,9.27,5.98,19.2,5.98,29.81s-2,20.55-5.98,29.82c-4,9.25-9.53,17.41-16.58,24.48-7.06,7.06-15.22,12.58-24.49,16.58-9.25,3.98-19.2,5.98-29.81,5.98h-50.94ZM968.84,880.45h18c5.92,0,11.53-1.14,16.8-3.41,5.26-2.27,9.94-5.42,14.05-9.45,4.1-4.02,7.3-8.69,9.6-13.99s3.45-10.99,3.45-17.08-1.15-11.74-3.45-17.01c-2.3-5.27-5.48-9.94-9.55-14.01s-8.74-7.22-14.01-9.49c-5.27-2.27-10.9-3.41-16.91-3.41h-18v87.84Z" fill="#fff"/></svg>