<?xml version="1.0" encoding="UTF-8"?><svg id="Capa_1" xmlns="http://www.w3.org/2000/svg" viewBox="0 0 108.73 53.26"><path d="M61.83,15.78c0,7.93.05,9.34.01,17.27,0,.94.3,1.5,1.07,2,2.15,1.39,4.23,2.87,6.37,4.28.68.45,1.01.96,1,1.83-.04,3.61-.04,7.22.01,10.82.01.99-.33,1.31-1.3,1.29-3.55-.04-7.1-.01-10.66-.01-1.48,0-1.54-.06-1.54-1.59,0-12.54-.03-18.56-.03-31.1,0-1.68-.01-1.66-1.61-2.18-4.52-1.47-9.02-2.98-13.54-4.46-.68-.22-1.02-.6-1.02-1.39.03-5.14.03-.87,0-6.02,0-.77.26-1.12,1.03-1.32,6.34-1.67,12.68-3.39,19.01-5.09,1.03-.28,1.17-.13,1.17,1.07,0,8,0,6.59,0,14.59h0Z" fill="#f2f1f1"/><path d="M40.64,31.26c0-6.86-.03-7.2-.03-14.06,0-1.36.03-1.4,1.27-.99,4.01,1.31,8.02,2.62,12.02,3.99.34.11.56.61.8.95.07.1.02.28.02.42,0,12.26.02,17.99,0,30.25,0,1.44-.02,1.43-1.43,1.43-3.62,0-7.25.01-10.87.02q-1.79,0-1.79-1.74c0-6.75,0-13.51,0-20.26Z" fill="#f2f1f1"/><path d="M88.06,41.26c0,3.54,0,7.07,0,10.61,0,1.41,0,1.42-1.45,1.4-2.51-.04-2.58.44-2.29-2.43.29-2.94-.68-4.73-3.26-6.14-2.76-1.51-5.29-3.45-7.87-5.27-.41-.29-.77-.95-.77-1.45-.06-6.64-.08-6.76-.11-13.41,0-.73.19-1.18.9-1.49,4.06-1.78,8.09-3.63,12.15-5.39.39-.17,1.08-.07,1.43.19,2.06,1.52,4.07,3.1,6.05,4.72.35.29.65.88.66,1.34.05,3.53.05.55.07,4.09,0,.82-.25,1.17-1.1,1.12-1.1-.06-2.2.03-3.3-.02-.82-.04-1.12.24-1.11,1.1.04,3.68.02,7.36.02,11.04h0Z" fill="#f2f1f1"/><path d="M38.61,30.83c0,6.83,0,13.65,0,20.48q0,1.95-1.99,1.96c-1.56,0-3.13-.05-4.69.02-.97.04-1.2-.33-1.2-1.24.03-7.15.01-14.29.01-21.44q0-1.47-1.46-1.47c-1.74,0-3.48-.03-5.22.01-.81.02-1.14-.22-1.13-1.09.04-3.25-.04.02,0-3.24,0-.51.24-1.14.59-1.5,2.94-3.1,5.95-6.13,8.91-9.22.55-.57,1.08-.71,1.8-.45,1.07.39,2.13.81,3.23,1.08.92.23,1.13.72,1.13,1.61-.03,7,.02,7.49.02,14.49Z" fill="#f2f1f1"/><path d="M69.95,37.24c-1.08-.72-2.1-1.57-3.27-2.12-2.34-1.1-2.91-2.81-2.87-5.36.16-10.36.05-4.79,0-15.15,0-1,.34-1.48,1.26-1.78,1.48-.48,2.91-1.13,4.4-1.59.6-.19,1.36-.24,1.94-.05,2.45.82,4.86,1.78,7.3,2.66.69.25.99.62.98,1.41-.04,3.68-.04-2.06,0,1.62,0,.82-.32,1.22-1.02,1.52-2.48,1.06-4.93,2.18-7.41,3.24-.75.32-1.04.76-1.04,1.61.04,6.36.05,6.2.05,12.56,0,.41,0,.83,0,1.24-.11.06-.22.13-.33.19Z" fill="#f2f1f1"/><path d="M28.64,42.22c0,3.25-.04,6.49.02,9.74.02,1.06-.36,1.38-1.35,1.32-1.13-.07-2.27-.03-3.4,0-.66,0-.95-.27-.95-.96.01-6.74.01-13.49,0-20.23,0-.7.35-.84.93-.84,1.21,0,2.41.05,3.62-.01.87-.04,1.18.24,1.16,1.15-.05,3.28-.02,6.56-.02,9.85Z" fill="#f2f1f1"/><path d="M72.52,41.53c2.38,1.6,4.42,3.23,6.69,4.42,2.48,1.3,3.4,3.07,3.02,5.8-.21,1.49-.04,1.51-1.58,1.51-2.38,0-4.75-.02-7.13,0-.79.01-1.19-.21-1.18-1.08.02-3.17,0-6.35.01-9.52,0-.3.09-.6.17-1.15Z" fill="#f2f1f1"/><path d="M90.15,42.16c0-3.29.02-6.57-.01-9.86,0-.78.23-1.08,1.03-1.07,2.81.05,2.37-.25,2.38,2.28.02,6.07,0,12.14,0,18.22,0,1.52-.02,1.53-1.57,1.53-.25,0-.5-.02-.75,0-.85.09-1.1-.32-1.1-1.14.03-3.32.01-6.64.01-9.97Z" fill="#f2f1f1"/><path d="M20.87,41.06c0-2.93.02-5.86-.03-8.79,0-.34-.39-.96-.61-.97-1.74-.08-3.48-.06-5.22-.01-.28,0-.59.23-.83.42-4.5,3.43-9,6.85-13.45,10.32-.39.31-.67,1-.69,1.52-.01.34-.02.67-.03,1.01v7.53c0,.64.52,1.15,1.15,1.15,0,0,0,0,.01,0v.02c6.14,0,12.29-.02,18.43.02,1,0,1.29-.33,1.28-1.29-.04-3.64-.01-7.29-.01-10.93Z" fill="#f2f1f1"/><path d="M104.41,32.09c-.54-.41-1.19-.61-1.87-.59-1.5.03-3-.03-4.49-.19-1.92-.21-2.53-.11-2.52,1.14.04,6.47.02,12.93.02,19.4,0,1.37.06,1.41,1.54,1.41,3.45,0,6.91,0,10.36,0,.71,0,1.28-.51,1.28-1.14v-15.25c0-.94-.44-1.82-1.18-2.39l-3.14-2.39Z" fill="#f2f1f1"/></svg>