<?xml version="1.0" encoding="UTF-8"?><svg id="Capa_1" xmlns="http://www.w3.org/2000/svg" viewBox="0 0 2234.78 439.88"><path d="M844.52,265.27l-23.82-18.17h0c-7.15-5.45-16.11-8.37-25.38-8.13-10.7.25-21.35-.2-31.75-1.32-5.84-.63-12.55-1.31-18.93,0,.49-2.32.82-4.75.8-7.43-.11-14.73-.17-15.4-.24-16.57-.06-.97-.13-2.33-.31-14.57-.13-8.61-4.74-18.12-11.49-23.66-15.54-12.76-31.23-25-46.62-36.38-7.8-5.76-19.77-7.19-28.49-3.42-6.04,2.62-12.03,5.33-18.05,7.99-.02-1.28-.03-2.53-.11-3.92.12-2.12.14-4.15.17-5.97.16-13.33-6.67-23.15-19.18-27.65-6.58-2.38-13.14-4.83-19.7-7.28-11.73-4.38-23.85-8.92-36.07-13.02-7.58-2.54-16.93-2.45-25.66.24-6.56,2.03-12.8,4.43-18.84,6.76-4.91,1.88-9.81,3.78-14.79,5.4-.48.16-.9.38-1.37.55V26.78c-.01-5.55-.02-15.87-8.68-22.52-8.53-6.55-18.44-3.9-22.67-2.77l-48.25,12.96c-31.97,8.61-63.93,17.21-95.94,25.64-13.67,3.6-21.17,13.31-21.11,27.33.05,13.83.1,18.72.11,20.98l-.16,24.33c-.54-.16-1.11-.36-1.61-.49-6.06-1.51-12.26-3.8-18.81-6.23l-3.88-1.44c-12-4.38-23.58-1.6-32.64,7.83-10,10.44-20.08,20.81-30.16,31.17-12.53,12.89-25.07,25.78-37.46,38.82-5.64,5.93-9.21,14.89-9.35,23.38-.09,5.77-.16,10.14.13,13.64h-.11c.03.95.02,3.6-.08,10.96-.04,2.74.32,5.22.84,7.59-.93-.19-1.83-.45-2.81-.5-13.99-.62-27.89-.43-40.81-.1-8.01.19-13.87,4.66-16.68,6.81l-10.3,7.85c-30.21,23.02-61.44,46.8-91.95,70.6-8.45,6.61-11.79,17.53-12.08,24.89-.1,2.65-.17,5.31-.23,8.32v57.11c0,13.37,9.92,24.46,22.85,26.3,1.23.27,2.51.41,3.81.41l34.98-.02c34.92-.02,69.85-.06,104.75.17h.65c3.2,0,10.29-.3,16.62-4.73,3.32,2.46,8.21,4.66,15.73,4.63l5.17-.09c6.74-.14,13.13-.26,19.32.12.71.04,1.71.1,2.94.1,4.02,0,10.34-.88,16.05-5.01,4.34,3.27,9.73,5.01,16.17,5.01.6,0,1.21-.02,1.83-.04,7.78-.36,15.6-.3,23.88-.21,3.64.03,7.28.05,10.92.05,10.04-.01,17.22-1.4,22.35-4.56,6.01,4.3,13.02,4.56,20.4,4.56h1.35l82.58-.15c8.12,0,14.21-1.34,18.69-4.15,4.63,2.94,10.94,4.34,19.36,4.34,8.91,0,17.82,0,26.75-.03,17.98-.03,35.95-.09,53.91.14.26,0,.57,0,.92,0,3.37,0,10.4-.37,16.68-4.83,6.1,4.41,12.92,4.78,16.22,4.78.36,0,.68,0,.95,0,12.76-.18,25.55-.14,38.31-.1l15.51.03c7.69,0,14.06-.97,18.95-4.06,5.27,3.56,11.26,4.08,16.64,4.08,1,0,1.97-.02,2.92-.03,1.85-.03,4-.05,6.5-.03,6.29.08,13.4.17,19.54-4.09,3.24,2.24,7.85,4.21,14.19,4.21,1.06,0,2.17-.05,3.34-.17.52-.03,1.05,0,1.57.03l2.33.04c6.79,0,13.64-.02,19.67-4,5.28,3.22,12.05,3.98,19.07,3.99l78.63.02c15.19,0,27.55-11.86,27.55-26.44v-115.68c0-12.59-5.98-24.67-16-32.3Z" fill="#fff"/><path d="M964.37,156.13h65.89v25.27h-96.51V16.83h30.61v139.3Z" fill="#1a1410"/><path d="M1258.68,181.4h-23.67c-2.66,0-4.84-.66-6.54-1.99-1.71-1.33-2.94-2.98-3.7-4.95l-12.29-33.57h-68.17l-12.29,33.57c-.61,1.75-1.8,3.34-3.58,4.78-1.78,1.44-3.97,2.16-6.54,2.16h-23.78l64.64-164.56h31.3l64.64,164.56ZM1152.15,119.26h52.46l-20.03-54.74c-.91-2.43-1.92-5.29-3.02-8.59-1.1-3.3-2.18-6.89-3.24-10.75-1.06,3.87-2.11,7.47-3.13,10.81-1.02,3.34-2.03,6.26-3.02,8.76l-20.03,54.51Z" fill="#1a1410"/><path d="M1602.59,99.11c0,12.06-2.01,23.24-6.03,33.52-4.02,10.28-9.67,19.18-16.96,26.69-7.28,7.51-16.05,13.37-26.29,17.58-10.24,4.21-21.59,6.32-34.03,6.32s-23.81-2.11-34.09-6.32c-10.28-4.21-19.08-10.07-26.4-17.58-7.32-7.51-12.99-16.41-17.01-26.69-4.02-10.28-6.03-21.45-6.03-33.52s2.01-23.23,6.03-33.52c4.02-10.28,9.69-19.18,17.01-26.69,7.32-7.51,16.12-13.37,26.4-17.58,10.28-4.21,21.64-6.32,34.09-6.32s23.78,2.13,34.03,6.37c10.24,4.25,19.01,10.11,26.29,17.58,7.28,7.47,12.93,16.35,16.96,26.63,4.02,10.28,6.03,21.45,6.03,33.52ZM1571.18,99.11c0-9.03-1.19-17.13-3.58-24.3-2.39-7.17-5.82-13.26-10.3-18.26-4.48-5.01-9.92-8.84-16.33-11.5-6.41-2.65-13.64-3.98-21.68-3.98s-15.29,1.33-21.74,3.98c-6.45,2.66-11.93,6.49-16.44,11.5-4.52,5.01-7.99,11.1-10.41,18.26-2.43,7.17-3.64,15.27-3.64,24.3s1.21,17.13,3.64,24.3c2.43,7.17,5.9,13.24,10.41,18.21,4.51,4.97,9.99,8.78,16.44,11.44,6.45,2.66,13.69,3.98,21.74,3.98s15.27-1.33,21.68-3.98c6.41-2.66,11.85-6.47,16.33-11.44,4.48-4.97,7.91-11.04,10.3-18.21,2.39-7.17,3.58-15.27,3.58-24.3Z" fill="#1a1410"/><path d="M1796.41,16.83v25.15h-49.51v139.41h-30.61V41.98h-49.73v-25.15h129.85Z" fill="#1a1410"/><path d="M1910.1,117.1v64.3h-30.61V16.83h50.19c11.23,0,20.84,1.16,28.85,3.47,8,2.31,14.57,5.56,19.69,9.73,5.12,4.17,8.88,9.16,11.27,14.97,2.39,5.8,3.58,12.2,3.58,19.18,0,5.54-.82,10.77-2.45,15.71-1.63,4.93-3.98,9.41-7.06,13.43-3.07,4.02-6.87,7.55-11.38,10.58-4.52,3.03-9.66,5.46-15.42,7.28,3.87,2.2,7.21,5.35,10.01,9.45l41.2,60.77h-27.54c-2.66,0-4.91-.53-6.77-1.59-1.86-1.06-3.43-2.58-4.72-4.55l-34.6-52.69c-1.29-1.97-2.71-3.37-4.27-4.21-1.56-.83-3.85-1.25-6.89-1.25h-13.09ZM1910.1,95.13h19.12c5.77,0,10.79-.72,15.08-2.16,4.29-1.44,7.81-3.43,10.58-5.97,2.77-2.54,4.84-5.56,6.2-9.05,1.37-3.49,2.05-7.32,2.05-11.49,0-8.35-2.75-14.76-8.25-19.23-5.5-4.48-13.9-6.71-25.21-6.71h-19.57v54.63Z" fill="#1a1410"/><path d="M2234.78,181.4h-23.67c-2.66,0-4.84-.66-6.54-1.99-1.71-1.33-2.94-2.98-3.7-4.95l-12.29-33.57h-68.17l-12.29,33.57c-.61,1.75-1.8,3.34-3.58,4.78-1.78,1.44-3.97,2.16-6.54,2.16h-23.78l64.64-164.56h31.3l64.64,164.56ZM2128.26,119.26h52.46l-20.03-54.74c-.91-2.43-1.92-5.29-3.02-8.59-1.1-3.3-2.18-6.89-3.24-10.75-1.06,3.87-2.11,7.47-3.13,10.81-1.02,3.34-2.03,6.26-3.02,8.76l-20.03,54.51Z" fill="#1a1410"/><path d="M1065.53,284.02c-.92-.46-1.79-1.06-2.62-1.81-2.75-2.5-5.52-4.6-8.31-6.31-2.79-1.71-5.75-3.11-8.88-4.19-3.13-1.08-6.54-1.87-10.25-2.37-3.71-.5-7.86-.75-12.44-.75-7.67,0-14.84,1.44-21.5,4.31-6.67,2.88-12.46,7.02-17.38,12.44-4.92,5.42-8.81,12.08-11.69,20-2.88,7.92-4.31,16.96-4.31,27.13s1.44,18.69,4.31,26.57c2.88,7.88,6.88,14.56,12,20.06,5.13,5.5,11.25,9.73,18.38,12.69,7.13,2.96,14.94,4.44,23.44,4.44,7.25,0,13.23-.75,17.94-2.25,4.71-1.5,8.6-3.13,11.69-4.88,3.08-1.75,5.63-3.37,7.63-4.88,2-1.5,3.96-2.25,5.88-2.25s3.27.38,4.31,1.13c1.04.75,1.9,1.63,2.56,2.63l11.25,15.63c-7.17,7.08-15.77,12.77-25.81,17.06-10.04,4.29-21.77,6.44-35.19,6.44s-26.32-2.27-37.69-6.81c-11.38-4.54-21.15-10.9-29.32-19.07-8.17-8.17-14.5-17.9-19-29.19-4.5-11.29-6.75-23.73-6.75-37.32s2.02-25.8,6.06-37.13c4.04-11.33,9.85-21.09,17.44-29.25,7.58-8.17,16.73-14.54,27.44-19.13,10.71-4.58,22.77-6.88,36.19-6.88,15,0,27.86,2.42,38.57,7.25,10.71,4.83,19.73,11.79,27.07,20.88l-13.25,14.38c-1.33,1.42-2.92,2.12-4.75,2.12-1.08,0-2.09-.23-3-.69Z" fill="#1a1410"/><path d="M1218.54,422.85h-33.75v-180.77h33.75v180.77Z" fill="#1a1410"/><path d="M1383.25,272.46c-5.13,2.17-9.44,5.23-12.94,9.19-3.5,3.96-6.19,8.73-8.06,14.31-1.88,5.58-2.81,11.83-2.81,18.75v108.14h-33.63v-108.26c0-10.75,1.73-20.69,5.19-29.82,3.46-9.13,8.42-17,14.88-23.63,6.46-6.63,14.31-11.8,23.56-15.5,9.25-3.71,19.67-5.56,31.25-5.56s22,1.86,31.25,5.56c9.25,3.71,17.13,8.88,23.63,15.5,6.5,6.63,11.48,14.5,14.94,23.63,3.46,9.13,5.19,19.06,5.19,29.82v108.26h-33.63v-108.26c0-6.92-.94-13.17-2.81-18.75-1.88-5.58-4.59-10.33-8.13-14.25-3.54-3.92-7.88-6.96-13-9.13-5.13-2.17-10.94-3.25-17.44-3.25s-12.31,1.08-17.44,3.25Z" fill="#1a1410"/><path d="M1732.6,368.97c-4.42,11.08-10.63,20.61-18.63,28.57-8,7.96-17.63,14.17-28.88,18.63-11.25,4.46-23.71,6.69-37.38,6.69h-69.01v-180.77h69.01c13.67,0,26.13,2.21,37.38,6.63,11.25,4.42,20.88,10.63,28.88,18.63,8,8,14.21,17.54,18.63,28.63,4.42,11.08,6.63,23.25,6.63,36.5s-2.21,25.42-6.63,36.51ZM1700.85,305.77c-2.67-7.88-6.46-14.54-11.38-20-4.92-5.46-10.9-9.65-17.94-12.56-7.04-2.92-14.98-4.38-23.81-4.38h-35.13v127.27h35.13c8.83,0,16.77-1.46,23.81-4.37,7.04-2.92,13.02-7.11,17.94-12.56,4.92-5.46,8.71-12.13,11.38-20,2.67-7.88,4-16.77,4-26.69s-1.33-18.82-4-26.69Z" fill="#1a1410"/><path d="M1915.87,422.85h-34.38l-71.01-180.77h26.13c2.83,0,5.23.79,7.19,2.37,1.96,1.58,3.27,3.33,3.94,5.25l13.5,36.88h74.88l13.5-36.88c.83-2.17,2.19-3.98,4.06-5.44,1.88-1.46,4.27-2.19,7.19-2.19h26l-71.01,180.77ZM1891.87,370.22c1.08,2.75,2.19,5.96,3.31,9.63,1.13,3.67,2.27,7.63,3.44,11.88,1.17-4.25,2.35-8.19,3.56-11.81,1.21-3.63,2.31-6.77,3.31-9.44l22-60.13h-57.63l22,59.88Z" fill="#1a1410"/><path d="M2228.16,368.97c-4.42,11.08-10.63,20.61-18.63,28.57-8,7.96-17.63,14.17-28.88,18.63-11.25,4.46-23.71,6.69-37.38,6.69h-69.01v-180.77h69.01c13.67,0,26.13,2.21,37.38,6.63,11.25,4.42,20.88,10.63,28.88,18.63,8,8,14.21,17.54,18.63,28.63,4.42,11.08,6.63,23.25,6.63,36.5s-2.21,25.42-6.63,36.51ZM2196.4,305.77c-2.67-7.88-6.46-14.54-11.38-20-4.92-5.46-10.9-9.65-17.94-12.56-7.04-2.92-14.98-4.38-23.81-4.38h-35.13v127.27h35.13c8.83,0,16.77-1.46,23.81-4.37,7.04-2.92,13.02-7.11,17.94-12.56,4.92-5.46,8.71-12.13,11.38-20,2.67-7.88,4-16.77,4-26.69s-1.33-18.82-4-26.69Z" fill="#1a1410"/><path d="M486.89,137.48c0,60.17.36,70.87.1,131.04-.03,7.1,2.29,11.4,8.15,15.2,16.28,10.54,32.11,21.79,48.29,32.48,5.18,3.42,7.7,7.26,7.62,13.87-.34,27.37-.27,54.75.08,82.12.09,7.47-2.49,9.91-9.89,9.82-26.94-.33-53.89-.08-80.84-.1-11.26-.01-11.68-.47-11.68-12.06,0-95.13-.24-140.8-.25-235.93,0-12.77-.1-12.57-12.24-16.53-34.26-11.19-68.46-22.58-102.7-33.83-5.19-1.7-7.77-4.52-7.74-10.56.24-39.03.19-6.61.05-45.64-.02-5.83,2-8.49,7.84-10.03,48.14-12.68,96.17-25.75,144.26-38.62,7.81-2.09,8.91-1.02,8.91,8.1.02,60.71.01,49.97.01,110.68h.03Z" fill="#3b9e78"/><path d="M326.16,254.95c0-52.05-.26-54.63-.24-106.67,0-10.35.21-10.61,9.67-7.52,30.44,9.93,60.87,19.9,91.17,30.25,2.55.87,4.23,4.6,6.05,7.19.51.73.13,2.11.13,3.2-.05,92.98.16,136.49.07,229.46-.01,10.89-.17,10.85-10.83,10.86-27.49.03-54.98.1-82.47.15q-13.55.02-13.56-13.22c0-51.23,0-102.46,0-153.7Z" fill="#e72264"/><path d="M685.85,330.78c0,26.82.02,53.65-.01,80.47-.01,10.66-.08,10.77-10.97,10.62-19.05-.27-19.58,3.33-17.41-18.4,2.23-22.3-5.2-35.89-24.7-46.61-20.92-11.49-40.14-26.17-59.72-40-3.08-2.18-5.83-7.24-5.87-10.99-.48-50.39-.64-51.32-.87-101.71-.03-5.52,1.48-8.92,6.85-11.28,30.78-13.52,61.35-27.53,92.2-40.89,2.94-1.28,8.21-.53,10.83,1.41,15.6,11.53,30.9,23.51,45.91,35.82,2.69,2.21,4.92,6.69,4.97,10.16.4,26.82.35,4.18.56,31,.05,6.22-1.91,8.86-8.38,8.53-8.33-.43-16.71.2-25.04-.18-6.23-.28-8.5,1.8-8.43,8.34.31,27.9.13,55.81.13,83.72h-.04Z" fill="#4b2770"/><path d="M310.74,251.68c0,51.78,0,103.56,0,155.35q0,14.81-15.1,14.84c-11.86.02-23.74-.36-35.57.18-7.32.33-9.12-2.52-9.1-9.44.21-54.22.11-108.44.1-162.67q0-11.13-11.05-11.14c-13.21,0-26.42-.21-39.62.11-6.13.15-8.64-1.69-8.56-8.29.3-24.67-.33.12.07-24.55.06-3.87,1.83-8.63,4.46-11.4,22.33-23.49,45.14-46.53,67.56-69.92,4.15-4.33,8.2-5.42,13.66-3.42,8.09,2.95,16.15,6.13,24.47,8.21,6.95,1.73,8.6,5.49,8.57,12.19-.22,53.14.13,56.81.12,109.95Z" fill="#4b2770"/><path d="M548.51,300.31c-8.23-5.44-15.96-11.94-24.78-16.1-17.77-8.36-22.11-21.34-21.81-40.69,1.22-78.6.34-36.32.07-114.93-.03-7.58,2.6-11.22,9.55-13.48,11.25-3.66,22.1-8.58,33.39-12.08,4.57-1.41,10.31-1.85,14.74-.36,18.61,6.25,36.89,13.48,55.36,20.16,5.22,1.89,7.5,4.71,7.43,10.7-.33,27.92-.33-15.6,0,12.32.07,6.25-2.43,9.27-7.74,11.55-18.8,8.07-37.42,16.54-56.24,24.55-5.71,2.43-7.9,5.77-7.86,12.23.28,48.25.41,47.05.41,95.3,0,3.14,0,6.27,0,9.41-.84.48-1.68.95-2.53,1.43Z" fill="#428ecc"/><path d="M235.06,338.13c0,24.63-.29,49.26.17,73.89.15,8.05-2.7,10.44-10.27,9.98-8.58-.52-17.22-.19-25.83-.07-5.04.07-7.24-2.02-7.23-7.27.1-51.15.11-102.31-.01-153.46-.01-5.32,2.68-6.38,7.04-6.34,9.15.07,18.31.34,27.44-.1,6.59-.32,8.92,1.82,8.82,8.69-.35,24.9-.14,49.8-.14,74.7Z" fill="#e72264"/><path d="M567.98,332.85c18.03,12.11,33.52,24.51,50.75,33.54,18.82,9.87,25.83,23.27,22.91,44.04-1.59,11.3-.31,11.49-12.02,11.48-18.02,0-36.05-.19-54.07.06-5.99.08-9.01-1.6-8.96-8.16.17-24.08.02-48.16.08-72.24,0-2.28.67-4.55,1.32-8.71Z" fill="#428ecc"/><path d="M701.75,337.68c0-24.93.15-49.86-.11-74.79-.06-5.95,1.75-8.22,7.79-8.11,21.32.39,18-1.9,18.06,17.29.14,46.07.06,92.13.05,138.2,0,11.56-.12,11.63-11.92,11.61-1.89,0-3.79-.17-5.65.02-6.46.66-8.37-2.42-8.32-8.61.23-25.2.1-50.4.1-75.6Z" fill="#e72264"/><path d="M176.13,329.27c0-22.22.16-44.45-.21-66.67-.04-2.58-2.93-7.25-4.66-7.33-13.17-.59-26.39-.42-39.58-.1-2.14.05-4.45,1.75-6.32,3.18-34.11,25.99-68.25,51.93-102.06,78.31-2.99,2.34-5.1,7.56-5.25,11.53-.1,2.55-.16,5.1-.22,7.66v57.11c0,4.84,3.92,8.76,8.76,8.76.03,0,.06,0,.09,0v.14c46.62,0,93.23-.16,139.84.16,7.59.05,9.8-2.52,9.73-9.82-.28-27.64-.11-55.29-.1-82.93Z" fill="#428ecc"/><path d="M809.9,261.26c-4.06-3.1-9.06-4.61-14.17-4.49-11.37.26-22.75-.2-34.06-1.42-14.57-1.57-19.18-.81-19.13,8.62.3,49.05.13,98.11.15,147.16,0,10.36.43,10.71,11.66,10.71,26.21.01,52.41.02,78.62.02,5.37,0,9.73-3.86,9.73-8.63v-115.68c0-7.11-3.32-13.82-8.98-18.14l-23.83-18.17Z" fill="#3b9e78"/></svg>